<?xml version="1.0" encoding="UTF-8"?>
<svg id="Layer_1" data-name="Layer 1" xmlns="http://www.w3.org/2000/svg" viewBox="0 0 30.468 30.472">
  <rect x="-.002" y="0" width="30.472" height="30.472" transform="translate(30.47 .002) rotate(90)" opacity="0"/>
  <path d="M27.863,11.713v-2h-3.511v-2.595l-1-1h-2.595v-2.276l-2-1.155v3.43h-2.523V1.231l-.25-.144h-1.5l-.25.144v4.887h-2.523v-3.431l-2,1.155v2.276h-2.595l-1,1v2.595h-3.511v2h3.511v2.523h-3.511v2h3.511v2.522h-3.511v2h3.511v2.596l1,1h2.595v2.275l2,1.155v-3.43h2.523v4.887l.25.144h1.5l.25-.144v-4.887h2.523v3.43l2-1.155v-2.275h2.595l1-1v-2.596h3.511v-2h-3.511v-2.522h3.511v-2h-3.511v-2.523h3.511ZM22.352,22.355h-14.236v-14.236h14.236v14.236Z" fill="#ffba00"/>
  <polygon points="20.74 9.691 18.22 9.691 9.725 20.781 12.245 20.781 20.74 9.691" fill="#ffba00"/>
</svg>