<?xml version="1.0" encoding="UTF-8"?>
<svg id="Layer_1" data-name="Layer 1" xmlns="http://www.w3.org/2000/svg" viewBox="0 0 81.585 30.472">
  <g>
    <rect x="40.793" y="-10.32" width="30.472" height="51.113" transform="translate(71.265 -40.793) rotate(90)" opacity="0"/>
    <path d="M34.149,19.256v-4.547l1.615-1.631h3.105l.925.8v-4.187h2.07v11.196h-1.944v-1.207l-1.208,1.207h-2.948l-1.615-1.631ZM38.525,19.131l1.27-1.302v-2.038l-1.066-.957h-1.913l-.596.611v3.074l.596.611h1.709Z" fill="#ffba00"/>
    <path d="M43.59,19.288v-4.579l1.615-1.631h4.407l1.631,1.631v2.963h-5.583v1.004l.502.517h2.556l.47-.486v-.407h2.039v1.018l-1.553,1.568h-4.501l-1.584-1.599ZM49.173,16.231v-.91l-.533-.549h-2.447l-.533.549v.91h3.513Z" fill="#ffba00"/>
    <path d="M55.884,9.911h1.945l4.014,10.977h-2.164l-.894-2.43h-3.858l-.894,2.43h-2.164l4.014-10.977ZM58.315,16.7l-1.459-4.171h-.031l-1.411,4.171h2.901Z" fill="#ffba00"/>
    <path d="M62.941,9.911h6.885l1.678,1.694v3.841l-1.694,1.71h-4.736v3.732h-2.133v-10.977ZM68.854,15.368l.549-.549v-2.572l-.549-.55h-3.78v3.67h3.78Z" fill="#ffba00"/>
    <path d="M73.15,9.911h2.133v10.977h-2.133v-10.977Z" fill="#ffba00"/>
  </g>
  <g>
    <rect x="0" y="0" width="30.472" height="30.472" transform="translate(30.472 0) rotate(90)" opacity="0"/>
    <path d="M27.865,11.713v-2h-3.511v-2.595l-1-1h-2.595v-2.276l-2-1.155v3.43h-2.523V1.231l-.25-.144h-1.5l-.25.144v4.887h-2.523v-3.431l-2,1.155v2.276h-2.595l-1,1v2.595h-3.511v2h3.511v2.523h-3.511v2h3.511v2.522h-3.511v2h3.511v2.596l1,1h2.595v2.275l2,1.155v-3.43h2.523v4.887l.25.144h1.5l.25-.144v-4.887h2.523v3.43l2-1.155v-2.275h2.595l1-1v-2.596h3.511v-2h-3.511v-2.522h3.511v-2h-3.511v-2.523h3.511ZM22.354,22.355h-14.236v-14.236h14.236v14.236Z" fill="#ffba00"/>
    <polygon points="20.742 9.691 18.222 9.691 9.727 20.781 12.247 20.781 20.742 9.691" fill="#ffba00"/>
  </g>
</svg>