<svg width="180" height="180" viewBox="0 0 180 180" fill="none" xmlns="http://www.w3.org/2000/svg">
<g clip-path="url(#clip0_2134_15187)">
<rect width="180" height="180" fill="#18181B"/>
<g clip-path="url(#clip1_2134_15187)">
<path d="M133.063 138.652L138.399 133.317V119.471H157.132V108.8H138.399V95.3382H157.132V84.6671H138.399V71.2056H157.132V60.5345H138.399V46.6888L133.063 41.3533H119.218V29.2096L108.547 23.0471V41.348H95.0852V15.2732L93.7513 14.5049H85.748L84.4141 15.2732V41.348H70.9526V23.0471L60.2815 29.2096V41.3533H46.4358L41.1002 46.6888V60.5345H22.3672V71.2056H41.1002V84.6671H22.3672V95.3382H41.1002V108.8H22.3672V119.471H41.1002V133.317L46.4358 138.652H60.2815V150.79L70.9526 156.953V138.652H84.4141V164.727L85.748 165.495H93.7513L95.0852 164.727V138.652H108.547V156.953L119.218 150.79V138.652H133.063ZM51.7713 127.981V52.019H127.728V127.976L51.7713 127.981ZM105.676 60.4118H119.122L73.8017 119.583H60.3562L105.676 60.4118Z" fill="#FFBA00"/>
</g>
</g>
<defs>
<clipPath id="clip0_2134_15187">
<rect width="180" height="180" fill="white"/>
</clipPath>
<clipPath id="clip1_2134_15187">
<rect width="134.765" height="150.99" fill="white" transform="translate(22.3672 14.5049)"/>
</clipPath>
</defs>
</svg>
